<?xml version="1.0" standalone="no"?>
<!DOCTYPE svg PUBLIC "-//W3C//DTD SVG 20010904//EN"
 "http://www.w3.org/TR/2001/REC-SVG-20010904/DTD/svg10.dtd">
<svg version="1.0" xmlns="http://www.w3.org/2000/svg"
 width="512.000000pt" height="512.000000pt" viewBox="0 0 512.000000 512.000000"
 preserveAspectRatio="xMidYMid meet">
<metadata>
Created by potrace 1.11, written by Peter Selinger 2001-2013
</metadata>
<g transform="translate(0.000000,512.000000) scale(0.100000,-0.100000)"
fill="#000000" stroke="none">
<path d="M2347 4549 c-780 -75 -1448 -615 -1690 -1364 -195 -605 -83 -1280
298 -1790 78 -105 269 -301 370 -380 245 -191 513 -315 825 -380 154 -33 458
-45 617 -26 592 73 1099 384 1424 874 222 336 328 689 329 1094 0 458 -138
863 -415 1218 -71 91 -260 278 -350 346 -410 313 -904 456 -1408 408z m895
-436 c36 -17 115 -64 175 -105 60 -42 135 -85 167 -97 75 -28 156 -28 214 0
l43 21 31 -28 c16 -16 64 -69 106 -119 337 -400 493 -924 427 -1432 -111 -847
-762 -1511 -1600 -1628 -141 -20 -409 -20 -540 0 -209 32 -504 130 -535 177
-8 13 -98 109 -200 213 -245 250 -302 335 -222 335 46 0 123 -45 320 -186 338
-241 474 -287 604 -205 34 21 53 44 73 85 33 68 30 118 -13 211 -59 124 -171
243 -492 520 -243 209 -307 274 -366 372 -41 69 -43 90 -7 99 73 19 180 -43
380 -217 429 -375 683 -521 912 -521 123 0 224 37 288 104 40 42 53 76 53 142
0 156 -89 256 -434 483 -215 142 -628 453 -760 572 -155 140 -223 235 -233
325 -4 31 0 47 15 66 18 22 28 25 89 25 116 0 171 -35 559 -361 318 -266 460
-366 641 -451 235 -110 419 -111 490 -4 19 27 23 48 23 106 0 116 -26 157
-248 387 -194 202 -255 274 -292 346 -31 59 -23 72 42 72 60 0 109 -20 195
-77 145 -98 221 -126 333 -127 90 0 143 22 177 73 30 45 29 76 -7 147 -51 102
-131 176 -395 361 -129 91 -192 147 -227 202 -32 52 -37 105 -10 134 26 30
139 20 224 -20z"/>
</g>
</svg>
